<svg xmlns="http://www.w3.org/2000/svg" id="line" viewBox="0 0 128 128">
  <path d="M16.94 25.09c0-1.55 1.25-2.8 2.8-2.8h90.4c1.55 0 2.8 1.25 2.8 2.8v4.4c0 1.55-1.25 2.8-2.8 2.8H19.74c-1.55 0-2.8-1.25-2.8-2.8v-4.4ZM16.94 50.55c0-1.55 1.25-2.8 2.8-2.8h90.4c1.55 0 2.8 1.25 2.8 2.8v10.4c0 1.55-1.25 2.8-2.8 2.8H19.74c-1.55 0-2.8-1.25-2.8-2.8v-10.4ZM16.94 82.02c0-1.55 1.25-2.8 2.8-2.8h90.4c1.55 0 2.8 1.25 2.8 2.8v22.4c0 1.55-1.25 2.8-2.8 2.8H19.74c-1.55 0-2.8-1.25-2.8-2.8v-22.4Z" style="fill-rule:evenodd;stroke-width:0"></path>
</svg>
