<svg xmlns="http://www.w3.org/2000/svg"  viewBox="0 0 50 50" width="50px" height="50px"><path d="M 5 2 C 3.347656 2 2 3.347656 2 5 L 2 21 C 2 22.652344 3.347656 24 5 24 L 12 24 L 12 35 C 12 36.644531 13.355469 38 15 38 L 26 38 L 26 45 C 26 46.652344 27.347656 48 29 48 L 45 48 C 46.652344 48 48 46.652344 48 45 L 48 29 C 48 27.347656 46.652344 26 45 26 L 38 26 L 38 15 C 38 13.355469 36.644531 12 35 12 L 24 12 L 24 5 C 24 3.347656 22.652344 2 21 2 Z M 24 14 L 35 14 C 35.566406 14 36 14.433594 36 15 L 36 26 L 29 26 C 27.347656 26 26 27.347656 26 29 L 26 36 L 15 36 C 14.433594 36 14 35.566406 14 35 L 14 24 L 21 24 C 22.652344 24 24 22.652344 24 21 Z"/></svg>