<svg xmlns="http://www.w3.org/2000/svg" fill-rule="evenodd" stroke-linejoin="round" stroke-miterlimit="2" clip-rule="evenodd" viewBox="0 0 24 24" id="stamp">
  <path d="M20.809,16.492c0.146,-0.802 -0.072,-1.628 -0.594,-2.254c-0.523,-0.626 -1.296,-0.988 -2.111,-0.988l-12.208,-0c-0.815,0 -1.588,0.362 -2.111,0.988c-0.522,0.626 -0.74,1.452 -0.594,2.254c0.188,1.036 0.39,2.149 0.496,2.732c0.109,0.594 0.626,1.026 1.23,1.026l14.166,-0c0.604,-0 1.121,-0.432 1.23,-1.026l0.496,-2.732Zm-1.935,2.258l-13.748,0l-0.459,-2.526c-0.067,-0.365 0.032,-0.74 0.27,-1.025c0.237,-0.284 0.589,-0.449 0.959,-0.449c0,-0 12.208,-0 12.208,-0c0.37,0 0.722,0.165 0.959,0.449c0.238,0.285 0.337,0.66 0.27,1.025l-0.459,2.526Z"></path>
  <path d="M19.235 19.647c.045-.22-.012-.449-.155-.622-.142-.174-.355-.275-.58-.275l-13 0c-.225 0-.438.101-.58.275-.143.173-.2.402-.155.622l.339 1.693c.163.818.882 1.407 1.716 1.407 2.191 0 8.169 0 10.36 0 .834 0 1.553-.589 1.716-1.407l.339-1.693zm-1.65.603l-.159.796c-.024.117-.126.201-.246.201l-10.36 0c-.12 0-.222-.084-.246-.201 0 0-.159-.796-.159-.796l11.17 0zM8.298 13.736c-.087.23-.055.488.085.691.14.202.371.323.617.323l6 0c.246 0 .477-.121.617-.323.14-.203.172-.461.085-.691 0 0-1.005-2.633-.013-4.94.407-.947 1.048-2.079 1.372-3.136.267-.872.32-1.705.03-2.405-.257-.618-.771-1.165-1.715-1.53-.763-.295-1.853-.478-3.376-.475-1.523-.003-2.613.18-3.376.475-.944.365-1.458.912-1.715 1.53-.29.7-.237 1.533.03 2.405.324 1.057.965 2.189 1.372 3.136.992 2.307-.013 4.94-.013 4.94zm1.687-.486c.261-1.178.499-3.197-.296-5.046-.388-.903-1.007-1.977-1.316-2.984-.155-.505-.246-.985-.078-1.39.125-.302.409-.528.869-.706.64-.247 1.558-.376 2.835-.374.001 0 .001 0 .002 0 1.277-.002 2.195.127 2.835.374.46.178.744.404.869.706.168.405.077.885-.078 1.39-.309 1.007-.928 2.081-1.316 2.984-.795 1.849-.557 3.868-.296 5.046l-4.03 0z"></path>
</svg>
